# xmcd
#
# Track frame offsets: 
#        150
#        13672
#        26087
#        39935
#        49757
#        64437
#        74370
#        92800
#        105855
#        118010
#        130767
#        144477
#        157965
#        172125
#
# Disc length: 2474 seconds
#
# Revision: 1
# Processed by: cddbd v1.5.2PL0 Copyright (c) Steve Scherf et al.
# Submitted via: ExactAudioCopy v1.0b1
#
DISCID=bd09a80e
DTITLE=Shoutin', Swingin' and Makin' Love - Shoutin', Swingin' and Makin' 
DTITLE=Love
DYEAR=1900
DGENRE=Blues
TTITLE0=Jimmy's Blues
TTITLE1=Lonesome Daddy Blues
TTITLE2=Clothespin Blues
TTITLE3=Wigglin' Blues
TTITLE4=Goin' Down Slow
TTITLE5=I Can Make It With You (A.K.A. I Can Make Love)
TTITLE6=Everything But You
TTITLE7=The Come Back
TTITLE8=Buzzard Luck
TTITLE9=Conjured
TTITLE10=It Don't Mean a Thing (If It Ain't Got That Swing)
TTITLE11=My Little Brown Book
TTITLE12=Fat and Forty
TTITLE13=Jimmy's Blues [Alternate Take]
EXTD=
EXTT0=
EXTT1=
EXTT2=
EXTT3=
EXTT4=
EXTT5=
EXTT6=
EXTT7=
EXTT8=
EXTT9=
EXTT10=
EXTT11=
EXTT12=
EXTT13=
PLAYORDER=
